<?xml version="1.0" encoding="UTF-8" standalone="no"?>
<!DOCTYPE svg PUBLIC "-//W3C//DTD SVG 1.1//EN" "http://www.w3.org/Graphics/SVG/1.1/DTD/svg11.dtd">
<svg width="100%" height="100%" viewBox="0 0 596 200" version="1.1" xmlns="http://www.w3.org/2000/svg" xmlns:xlink="http://www.w3.org/1999/xlink" xml:space="preserve" xmlns:serif="http://www.serif.com/" style="fill-rule:evenodd;clip-rule:evenodd;stroke-linejoin:round;stroke-miterlimit:2;">
    <g id="Layer-1" serif:id="Layer 1" transform="matrix(1,0,0,1,0,-197.638)">
        <g transform="matrix(1,0,0,1,77.6644,305.049)">
            <path d="M0,-14.143L0,-10.727L27.313,-10.727L27.313,7.312L-0.453,7.312L-7.312,0.001L19.988,0.001L19.988,-3.415L-7.312,-3.415L-7.312,-21.455L27.313,-21.455L27.313,-14.143L0,-14.143Z" style="fill:white;fill-rule:nonzero;"/>
        </g>
        <g transform="matrix(1,0,0,1,143.979,312.361)">
            <path d="M0,-28.767L0,0L-7.312,0L-7.312,-10.727L-27.3,-10.727L-27.3,0L-34.625,0L-34.625,-28.767L-27.3,-28.767L-27.3,-18.039L-7.312,-18.039L-7.312,-28.767L0,-28.767Z" style="fill:white;fill-rule:nonzero;"/>
        </g>
        <g transform="matrix(1,0,0,1,0,0.679)">
            <path d="M214.683,293.643L194.695,293.643L194.695,290.227L214.683,290.227L214.683,293.643ZM214.669,282.915L187.384,282.915L187.384,311.682L194.695,311.682L194.695,300.955L221.981,300.955L221.981,290.227L214.669,282.915Z" style="fill:white;fill-rule:nonzero;"/>
        </g>
        <g transform="matrix(1,0,0,1,407.892,312.361)">
            <path d="M0,-28.767L0,0L-7.312,0L-7.312,-10.727L-27.299,-10.727L-27.299,0L-34.625,0L-34.625,-28.767L-27.299,-28.767L-27.299,-18.039L-7.312,-18.039L-7.312,-28.767L0,-28.767Z" style="fill:white;fill-rule:nonzero;"/>
        </g>
        <g transform="matrix(1,0,0,1,485.908,312.361)">
            <path d="M0,-28.767L0,-7.312L-7.312,0L-27.299,0L-34.625,-7.312L-34.625,-28.767L-27.299,-28.767L-27.299,-7.312L-7.312,-7.312L-7.312,-28.767L0,-28.767Z" style="fill:white;fill-rule:nonzero;"/>
        </g>
        <g transform="matrix(1,0,0,1,524.923,290.907)">
            <path d="M0,14.143L-6.859,21.455L-34.625,21.455L-34.625,-7.312L-27.313,-7.312L-27.313,14.143L0,14.143Z" style="fill:white;fill-rule:nonzero;"/>
        </g>
        <g transform="matrix(1,0,0,1,332.212,270.925)">
            <path d="M0,31.039C-0.166,34.22 -0.552,37.313 -1.127,40.284C-0.066,41.566 1.016,42.869 2.088,44.184C3.104,40.019 3.756,35.612 3.988,31.039L0,31.039ZM-1.834,-1.48C-4.661,-7.655 -8.362,-12.891 -12.692,-16.834C-4.96,-13.487 1.712,-8.152 6.694,-1.48L-1.834,-1.48ZM0.088,25.074L-13.156,25.074C-13.211,21.064 -13.41,17.143 -13.774,13.365C-14.128,9.577 -14.625,5.942 -15.255,2.507L-7.412,2.507C-7.986,1.126 -8.616,-0.21 -9.301,-1.48L-16.072,-1.48C-16.657,-4.065 -17.331,-6.517 -18.082,-8.793C-19.562,-13.211 -21.142,-16.47 -22.744,-18.834C-9.952,-13.211 -0.486,4.23 0.088,25.074M-29.658,-1.48L-29.658,-20.225C-26.113,-18.348 -22.556,-11.599 -20.148,-1.48L-29.658,-1.48ZM18.579,14.415C17.795,11.289 16.724,8.273 15.398,5.401L15.387,5.39C15.221,5.015 15.045,4.661 14.868,4.297L14.868,4.286C7.379,-10.947 -7.368,-21.993 -24.831,-24.29C-26.709,-24.544 -28.631,-24.688 -30.564,-24.721L-30.73,-24.721C-30.907,-24.732 -31.094,-24.743 -31.271,-24.743L-32.033,-24.743C-32.21,-24.743 -32.398,-24.732 -32.575,-24.721L-32.762,-24.721C-42.317,-24.522 -51.242,-21.728 -58.853,-17C-57.671,-16.249 -56.456,-15.42 -55.208,-14.537C-53.728,-15.387 -52.203,-16.138 -50.635,-16.823C-51.728,-15.807 -52.811,-14.702 -53.827,-13.532C-52.811,-12.791 -51.762,-11.996 -50.712,-11.168C-47.708,-14.581 -44.272,-17.199 -40.572,-18.834C-42.174,-16.47 -43.764,-13.211 -45.222,-8.793C-45.41,-8.229 -45.587,-7.666 -45.764,-7.092C-44.692,-6.175 -43.587,-5.203 -42.461,-4.198C-41.4,-8.064 -40.163,-11.356 -38.827,-13.94C-37.192,-17.133 -35.424,-19.287 -33.646,-20.225L-33.646,-1.48L-39.5,-1.48C-38.142,-0.21 -36.75,1.115 -35.325,2.507L-19.297,2.507C-18.226,8.085 -17.486,14.492 -17.232,21.539C-15.067,23.948 -12.88,26.455 -10.626,29.051L14.128,29.051C14.161,28.399 14.172,27.736 14.172,27.062C14.172,26.389 14.161,25.726 14.128,25.074L4.076,25.074C3.855,16.922 2.331,9.267 -0.188,2.507L9.356,2.507C12.206,7.224 14.249,12.482 15.31,18.082C15.752,20.358 16.028,22.699 16.127,25.074C16.149,25.726 16.16,26.389 16.16,27.062C16.16,27.736 16.149,28.399 16.127,29.051C15.785,37.28 13.355,44.968 9.356,51.618C9.179,51.916 9.003,52.203 8.815,52.501C9.687,53.584 10.56,54.677 11.444,55.782C16.934,47.553 20.148,37.678 20.148,27.062C20.148,22.699 19.607,18.458 18.579,14.415M0,31.039C-0.166,34.22 -0.552,37.313 -1.127,40.284C-0.066,41.566 1.016,42.869 2.088,44.184C3.104,40.019 3.756,35.612 3.988,31.039L0,31.039Z" style="fill:white;fill-rule:nonzero;"/>
        </g>
        <g transform="matrix(1,0,0,1,309.457,265.113)">
            <path d="M0,78.781C1.613,76.406 3.192,73.159 4.672,68.718C5.424,66.454 6.097,64.001 6.683,61.417L16.569,61.417C12.493,69.635 6.705,75.832 0,78.781M-6.904,80.151L-6.904,61.417L2.607,61.417C0.199,71.535 -3.358,78.284 -6.904,80.151M-40.638,34.862C-40.66,34.21 -40.66,33.548 -40.66,32.874C-40.66,32.2 -40.66,31.537 -40.638,30.886C-40.417,22.656 -38.794,14.968 -36.143,8.319L-25.295,8.319C-26.577,15.189 -27.295,22.877 -27.394,30.886L-38.65,30.886C-38.672,31.537 -38.672,32.2 -38.672,32.874C-38.672,33.548 -38.672,34.21 -38.65,34.862L-27.394,34.862C-27.295,42.87 -26.577,50.558 -25.295,57.429L-33.138,57.429C-32.564,58.81 -31.934,60.135 -31.26,61.417L-24.478,61.417C-23.892,64.001 -23.219,66.454 -22.468,68.718C-21.01,73.148 -19.419,76.395 -17.817,78.77C-30.597,73.125 -40.064,55.695 -40.638,34.862M-47.255,61.417C-48.194,60.135 -49.099,58.81 -49.917,57.429C-52.292,53.486 -54.114,49.167 -55.263,44.594C-56.058,41.457 -56.544,38.209 -56.677,34.862L-44.626,34.862C-44.405,43.003 -42.881,50.669 -40.362,57.429L-47.929,57.429C-47.1,58.81 -46.205,60.135 -45.255,61.417L-38.705,61.417C-35.877,67.58 -32.177,72.816 -27.858,76.771C-35.59,73.413 -42.273,68.088 -47.255,61.417M26.389,65.106C21.86,70.055 16.315,74.053 10.074,76.76C14.857,72.396 18.889,66.443 21.794,59.406C21.264,58.744 20.722,58.081 20.192,57.429L7.5,57.429C8.13,53.994 8.627,50.36 8.98,46.571C9.058,45.787 9.124,45.002 9.179,44.207C7.931,42.727 6.683,41.28 5.468,39.866C5.169,46.328 4.451,52.237 3.457,57.429L-6.904,57.429L-6.904,36.85L-10.891,36.85L-10.891,57.429L-18.602,57.429C-18.336,58.81 -18.049,60.135 -17.751,61.417L-10.891,61.417L-10.891,80.151C-12.67,79.212 -14.437,77.069 -16.072,73.877C-17.707,70.695 -19.198,66.476 -20.402,61.417C-20.711,60.135 -20.987,58.81 -21.253,57.429C-21.882,54.182 -22.39,50.647 -22.766,46.869C-23.13,43.091 -23.362,39.082 -23.418,34.862L1.082,34.862C-0.122,33.514 -1.303,32.178 -2.485,30.886L-6.904,30.886L-6.904,26.058C-8.251,24.6 -9.588,23.187 -10.891,21.828L-10.891,30.886L-23.418,30.886C-23.318,23.584 -22.711,16.901 -21.739,11.014C-24.312,8.584 -26.798,6.352 -29.173,4.331L-34.364,4.331C-33.856,3.315 -33.326,2.332 -32.762,1.371C-33.856,0.498 -34.894,-0.297 -35.888,-1.037C-41.058,7.579 -44.306,18.691 -44.626,30.886L-56.677,30.886C-56.511,26.765 -55.815,22.789 -54.667,19.011C-53.518,15.222 -51.916,11.632 -49.917,8.319L-43.345,8.319C-42.859,6.949 -42.328,5.623 -41.765,4.331L-47.255,4.331C-45.035,1.382 -42.494,-1.325 -39.677,-3.688C-40.948,-4.539 -42.129,-5.257 -43.223,-5.887C-53.938,3.602 -60.709,17.465 -60.709,32.874C-60.709,35.37 -60.521,37.834 -60.179,40.242C-56.776,64.079 -37.07,82.735 -12.747,84.525C-11.775,84.602 -10.792,84.646 -9.798,84.657C-9.621,84.668 -9.444,84.668 -9.279,84.668L-8.517,84.668C-8.34,84.668 -8.152,84.657 -7.975,84.657C-7.92,84.657 -7.854,84.657 -7.787,84.646C6.65,84.348 19.673,78.107 28.885,68.265C28.046,67.205 27.206,66.144 26.389,65.106" style="fill:white;fill-rule:nonzero;"/>
        </g>
        <g transform="matrix(1,0,0,1,378.867,239.262)">
            <path d="M0,30.608C-6.754,26.949 -38.24,24.011 -34.609,21.131C-30.978,18.251 -16.178,13.261 -20.637,12.556C-25.096,11.851 -39.614,17.696 -40.23,15.222C-40.842,12.756 -33.415,8.279 -35.863,8.648C-38.309,9.01 -45.334,11.216 -43.953,9.013C-42.572,6.811 -25.704,-15.183 -31.255,-12.828C-36.807,-10.474 -50.557,12.373 -51.234,4.439C-51.909,-3.502 -51.533,-17.087 -53.244,-10.839C-54.668,-5.641 -55.785,5.904 -56.128,9.643C-39.893,16.477 -28.578,31.027 -25.387,47.695C-25.224,47.554 -24.937,47.46 -24.496,47.409C-20.498,46.955 -11.06,46.443 -16.085,44.062C-21.119,41.686 -28.462,35.477 -23.126,34.866C-17.799,34.261 6.747,34.266 0,30.608" style="fill:white;fill-rule:nonzero;"/>
        </g>
        <g transform="matrix(1,0,0,1,246.301,373.092)">
            <path d="M0,-80.105C0,-80.105 -6.64,-75.282 -7.194,-72.33C-7.74,-69.383 0.868,-64.954 -3.137,-64.502C-7.136,-64.049 -16.575,-63.53 -11.541,-61.154C-6.508,-58.778 -0.052,-54.959 -4.501,-51.958C-14.03,-45.532 -34.143,-40.659 -26.592,-39.289C-18.431,-37.808 8.029,-45.615 5.103,-42.021C2.329,-38.615 -11.449,-30.353 -6.996,-29.65C-2.537,-28.945 11.325,-28.803 11.955,-26.277C13.065,-21.837 -1.929,-1.911 3.622,-4.265C9.174,-6.62 22.924,-29.467 23.599,-21.526C24.282,-13.59 23.898,0 25.609,-6.248C26.959,-11.178 31.982,-20.951 34.051,-24.864C11.068,-33.016 -3.013,-56.21 0,-80.105" style="fill:white;fill-rule:nonzero;"/>
        </g>
        <g transform="matrix(1,0,0,1,351.33,248.536)">
            <path d="M0,92.561C-51.275,26.179 -85.04,-4.162 -100.38,2.343C-105.73,4.613 -107.883,11.536 -105.862,17.968C-106.132,12.81 -103.991,6.757 -99.344,4.786C-95.183,3.02 -86.6,3.996 -69.336,18.658C-52.165,33.241 -29.55,58.65 -2.064,94.234L-4.381,96.119L-0.285,96.544L1.427,96.723L1.639,94.685L2.031,90.915L0,92.561Z" style="fill:white;fill-rule:nonzero;"/>
        </g>
        <g transform="matrix(1,0,0,1,0,0.679)">
            <path d="M155.68,290.227L175.668,290.227L175.668,304.371L155.68,304.371L155.68,290.227ZM175.668,282.915L155.68,282.915L148.369,290.227L148.369,304.371L155.68,311.682L175.668,311.682L182.98,304.371L182.98,290.227L175.668,282.915Z" style="fill:white;fill-rule:nonzero;"/>
        </g>
        <g transform="matrix(1,0,0,1,439.554,301.634)">
            <path d="M0,-7.312L-19.96,-7.312L-19.96,-10.728L0.041,-10.728L0.041,-7.092L0,-7.312ZM0.041,-18.04L-19.96,-18.04L-27.272,-10.728L-27.272,10.728L-19.96,10.728L-19.96,0.123L0.041,0.123L0.041,10.728L7.353,10.728L7.353,-10.728L0.041,-18.04Z" style="fill:white;fill-rule:nonzero;"/>
        </g>
    </g>
</svg>
