<?xml version="1.0" encoding="UTF-8" standalone="no"?>
<!DOCTYPE svg PUBLIC "-//W3C//DTD SVG 1.1//EN" "http://www.w3.org/Graphics/SVG/1.1/DTD/svg11.dtd">
<svg width="100%" height="100%" viewBox="0 0 2481 2481" version="1.1" xmlns="http://www.w3.org/2000/svg" xmlns:xlink="http://www.w3.org/1999/xlink" xml:space="preserve" xmlns:serif="http://www.serif.com/" style="fill-rule:evenodd;clip-rule:evenodd;stroke-linejoin:round;stroke-miterlimit:2;">
    <g id="Layer-1" serif:id="Layer 1" transform="matrix(4.16667,0,0,4.16667,0,0)">
        <g transform="matrix(1,0,0,1,0,0.001)">
            <rect x="0" y="0" width="595.275" height="595.275" style="fill:rgb(29,29,27);"/>
        </g>
        <g transform="matrix(1,0,0,1,343.306,260.393)">
            <path d="M0,42.733C-0.228,47.113 -0.76,51.371 -1.551,55.462C-0.091,57.226 1.399,59.02 2.874,60.83C4.273,55.097 5.171,49.029 5.49,42.733L0,42.733ZM-2.524,-2.038C-6.418,-10.539 -11.512,-17.747 -17.473,-23.176C-6.828,-18.568 2.357,-11.223 9.216,-2.038L-2.524,-2.038ZM0.122,34.521L-18.112,34.521C-18.188,29.001 -18.462,23.602 -18.964,18.401C-19.45,13.185 -20.135,8.182 -21.001,3.452L-10.204,3.452C-10.995,1.551 -11.862,-0.289 -12.805,-2.038L-22.127,-2.038C-22.933,-5.596 -23.86,-8.972 -24.895,-12.105C-26.932,-18.188 -29.107,-22.674 -31.312,-25.929C-13.702,-18.188 -0.669,5.825 0.122,34.521M-40.832,-2.038L-40.832,-27.845C-35.95,-25.259 -31.054,-15.968 -27.738,-2.038L-40.832,-2.038ZM25.579,19.846C24.499,15.542 23.024,11.391 21.199,7.437L21.184,7.421C20.956,6.904 20.713,6.418 20.469,5.916L20.469,5.901C10.159,-15.07 -10.143,-30.278 -34.186,-33.441C-36.772,-33.791 -39.418,-33.989 -42.079,-34.034L-42.307,-34.034C-42.55,-34.049 -42.809,-34.065 -43.052,-34.065L-44.102,-34.065C-44.345,-34.065 -44.603,-34.049 -44.847,-34.034L-45.105,-34.034C-58.26,-33.76 -70.547,-29.913 -81.025,-23.404C-79.398,-22.37 -77.725,-21.229 -76.007,-20.013C-73.969,-21.184 -71.87,-22.218 -69.711,-23.161C-71.216,-21.762 -72.707,-20.241 -74.106,-18.629C-72.707,-17.61 -71.262,-16.515 -69.817,-15.375C-65.681,-20.074 -60.951,-23.678 -55.857,-25.929C-58.062,-22.674 -60.252,-18.188 -62.259,-12.105C-62.518,-11.329 -62.761,-10.554 -63.004,-9.763C-61.529,-8.501 -60.009,-7.163 -58.457,-5.779C-56.997,-11.101 -55.294,-15.633 -53.454,-19.192C-51.203,-23.587 -48.77,-26.552 -46.322,-27.845L-46.322,-2.038L-54.382,-2.038C-52.511,-0.289 -50.595,1.536 -48.633,3.452L-26.567,3.452C-25.092,11.132 -24.073,19.952 -23.724,29.655C-20.743,32.97 -17.732,36.422 -14.63,39.996L19.45,39.996C19.496,39.098 19.511,38.186 19.511,37.258C19.511,36.331 19.496,35.418 19.45,34.521L5.612,34.521C5.307,23.298 3.209,12.759 -0.258,3.452L12.881,3.452C16.804,9.946 19.618,17.185 21.077,24.895C21.686,28.027 22.066,31.251 22.203,34.521C22.233,35.418 22.249,36.331 22.249,37.258C22.249,38.186 22.233,39.098 22.203,39.996C21.731,51.325 18.386,61.91 12.881,71.064C12.637,71.475 12.394,71.87 12.136,72.281C13.337,73.771 14.538,75.277 15.755,76.798C23.313,65.468 27.738,51.873 27.738,37.258C27.738,31.251 26.993,25.412 25.579,19.846M0,42.733C-0.228,47.113 -0.76,51.371 -1.551,55.462C-0.091,57.226 1.399,59.02 2.874,60.83C4.273,55.097 5.171,49.029 5.49,42.733L0,42.733Z" style="fill:white;fill-rule:nonzero;"/>
        </g>
        <g transform="matrix(1,0,0,1,311.979,252.393)">
            <path d="M0,108.46C2.22,105.19 4.395,100.719 6.433,94.606C7.467,91.488 8.394,88.112 9.201,84.554L22.811,84.554C17.2,95.868 9.231,104.4 0,108.46M-9.505,110.346L-9.505,84.554L3.589,84.554C0.274,98.484 -4.623,107.776 -9.505,110.346M-55.948,47.995C-55.979,47.098 -55.979,46.186 -55.979,45.258C-55.979,44.33 -55.979,43.418 -55.948,42.52C-55.644,31.191 -53.409,20.607 -49.759,11.452L-34.825,11.452C-36.589,20.911 -37.578,31.495 -37.715,42.52L-53.211,42.52C-53.241,43.418 -53.241,44.33 -53.241,45.258C-53.241,46.186 -53.241,47.098 -53.211,47.995L-37.715,47.995C-37.578,59.021 -36.589,69.605 -34.825,79.064L-45.622,79.064C-44.832,80.965 -43.965,82.79 -43.037,84.554L-33.7,84.554C-32.894,88.112 -31.966,91.488 -30.932,94.606C-28.925,100.704 -26.735,105.175 -24.53,108.445C-42.125,100.674 -55.157,76.676 -55.948,47.995M-65.057,84.554C-66.35,82.79 -67.597,80.965 -68.722,79.064C-71.992,73.635 -74.501,67.689 -76.083,61.393C-77.178,57.074 -77.847,52.603 -78.029,47.995L-61.438,47.995C-61.134,59.203 -59.035,69.757 -55.568,79.064L-65.985,79.064C-64.844,80.965 -63.613,82.79 -62.305,84.554L-53.287,84.554C-49.394,93.04 -44.299,100.248 -38.353,105.692C-48.998,101.069 -58.199,93.739 -65.057,84.554M36.331,89.633C30.095,96.446 22.461,101.951 13.869,105.677C20.454,99.67 26.005,91.473 30.004,81.786C29.274,80.874 28.529,79.961 27.799,79.064L10.326,79.064C11.193,74.335 11.877,69.331 12.364,64.115C12.47,63.035 12.561,61.956 12.637,60.861C10.919,58.823 9.201,56.831 7.528,54.884C7.117,63.781 6.129,71.916 4.76,79.064L-9.505,79.064L-9.505,50.733L-14.995,50.733L-14.995,79.064L-25.609,79.064C-25.244,80.965 -24.849,82.79 -24.438,84.554L-14.995,84.554L-14.995,110.346C-17.443,109.053 -19.876,106.103 -22.127,101.708C-24.378,97.328 -26.431,91.519 -28.088,84.554C-28.514,82.79 -28.894,80.965 -29.259,79.064C-30.126,74.593 -30.825,69.727 -31.343,64.526C-31.844,59.325 -32.164,53.804 -32.24,47.995L1.49,47.995C-0.167,46.14 -1.795,44.3 -3.422,42.52L-9.505,42.52L-9.505,35.875C-11.36,33.867 -13.2,31.921 -14.995,30.05L-14.995,42.52L-32.24,42.52C-32.103,32.468 -31.266,23.268 -29.928,15.162C-33.472,11.817 -36.893,8.745 -40.163,5.962L-47.31,5.962C-46.611,4.563 -45.881,3.209 -45.105,1.886C-46.611,0.685 -48.04,-0.41 -49.409,-1.429C-56.526,10.433 -60.997,25.732 -61.438,42.52L-78.029,42.52C-77.801,36.848 -76.843,31.374 -75.262,26.172C-73.68,20.956 -71.475,16.014 -68.722,11.452L-59.674,11.452C-59.005,9.566 -58.275,7.741 -57.499,5.962L-65.057,5.962C-62.001,1.901 -58.503,-1.824 -54.625,-5.079C-56.374,-6.25 -58.001,-7.238 -59.507,-8.105C-74.258,4.958 -83.58,24.044 -83.58,45.258C-83.58,48.695 -83.322,52.086 -82.85,55.401C-78.166,88.219 -51.036,113.904 -17.549,116.368C-16.211,116.474 -14.858,116.535 -13.489,116.55C-13.246,116.565 -13.002,116.565 -12.774,116.565L-11.725,116.565C-11.482,116.565 -11.223,116.55 -10.98,116.55C-10.904,116.55 -10.813,116.55 -10.721,116.535C9.155,116.125 27.084,107.532 39.767,93.982C38.612,92.523 37.456,91.063 36.331,89.633" style="fill:white;fill-rule:nonzero;"/>
        </g>
        <g transform="matrix(1,0,0,1,407.538,216.801)">
            <path d="M0,42.14C-9.298,37.102 -52.646,33.058 -47.647,29.093C-42.648,25.127 -22.272,18.257 -28.411,17.287C-34.551,16.316 -54.538,24.363 -55.386,20.957C-56.228,17.562 -46.004,11.399 -49.374,11.907C-52.742,12.406 -62.413,15.442 -60.512,12.41C-58.611,9.377 -35.387,-20.902 -43.03,-17.661C-50.673,-14.419 -69.604,17.035 -70.536,6.112C-71.465,-4.821 -70.948,-23.524 -73.303,-14.922C-75.263,-7.765 -76.801,8.129 -77.273,13.277C-54.922,22.685 -39.345,42.717 -34.951,65.664C-34.727,65.47 -34.332,65.341 -33.725,65.27C-28.22,64.646 -15.226,63.94 -22.145,60.662C-29.075,57.391 -39.184,48.843 -31.839,48.003C-24.505,47.169 9.289,47.176 0,42.14" style="fill:white;fill-rule:nonzero;"/>
        </g>
        <g transform="matrix(1,0,0,1,225.03,401.052)">
            <path d="M0,-110.284C0,-110.284 -9.142,-103.644 -9.904,-99.58C-10.656,-95.522 1.195,-89.425 -4.319,-88.803C-9.824,-88.179 -22.82,-87.465 -15.89,-84.193C-8.959,-80.922 -0.072,-75.665 -6.196,-71.534C-19.316,-62.686 -47.005,-55.977 -36.611,-54.091C-25.374,-52.053 11.054,-62.801 7.025,-57.853C3.207,-53.163 -15.763,-41.788 -9.632,-40.82C-3.493,-39.85 15.592,-39.654 16.459,-36.177C17.987,-30.064 -2.656,-2.631 4.987,-5.873C12.63,-9.114 31.561,-40.568 32.49,-29.636C33.43,-18.71 32.901,0 35.257,-8.603C37.115,-15.389 44.031,-28.844 46.88,-34.232C15.238,-45.455 -4.148,-77.387 0,-110.284" style="fill:white;fill-rule:nonzero;"/>
        </g>
        <g transform="matrix(1,0,0,1,369.627,229.57)">
            <path d="M0,127.432C-70.592,36.041 -117.078,-5.73 -138.197,3.226C-145.562,6.351 -148.526,15.881 -145.745,24.737C-146.116,17.636 -143.168,9.303 -136.771,6.589C-131.041,4.158 -119.226,5.501 -95.457,25.688C-71.817,45.764 -40.683,80.745 -2.842,129.735L-6.031,132.33L-0.393,132.915L1.965,133.162L2.257,130.356L2.796,125.166L0,127.432Z" style="fill:white;fill-rule:nonzero;"/>
        </g>
        <g transform="matrix(1,0,0,1,203.328,175.168)">
            <path d="M0,-19.472L0,-14.769L37.603,-14.769L37.603,10.067L-0.623,10.067L-10.066,-0L27.518,-0L27.518,-4.703L-10.066,-4.703L-10.066,-29.539L37.603,-29.539L37.603,-19.472L0,-19.472Z" style="fill:white;fill-rule:nonzero;"/>
        </g>
        <g transform="matrix(1,0,0,1,294.625,185.235)">
            <path d="M0,-39.605L0,0L-10.067,0L-10.067,-14.769L-37.584,-14.769L-37.584,0L-47.67,0L-47.67,-39.605L-37.584,-39.605L-37.584,-24.836L-10.067,-24.836L-10.067,-39.605L0,-39.605Z" style="fill:white;fill-rule:nonzero;"/>
        </g>
        <g transform="matrix(1,0,0,1,0,-264.411)">
            <path d="M391.967,424.81L364.449,424.81L364.449,420.107L391.967,420.107L391.967,424.81ZM391.948,410.041L354.382,410.041L354.382,449.646L364.449,449.646L364.449,434.877L402.014,434.877L402.014,420.107L391.948,410.041Z" style="fill:white;fill-rule:nonzero;"/>
        </g>
        <g transform="matrix(1,0,0,1,0,-264.411)">
            <path d="M310.736,420.107L338.254,420.107L338.254,439.579L310.736,439.579L310.736,420.107ZM338.253,410.041L310.736,410.041L300.669,420.107L300.669,439.579L310.736,449.646L338.253,449.646L348.32,439.579L348.32,420.107L338.253,410.041Z" style="fill:white;fill-rule:nonzero;"/>
        </g>
        <g transform="matrix(1,0,0,1,240.915,449.646)">
            <path d="M0,-39.605L0,0L-10.067,0L-10.067,-14.769L-37.584,-14.769L-37.584,0L-47.67,0L-47.67,-39.605L-37.584,-39.605L-37.584,-24.836L-10.067,-24.836L-10.067,-39.605L0,-39.605Z" style="fill:white;fill-rule:nonzero;"/>
        </g>
        <g transform="matrix(1,0,0,1,348.333,449.646)">
            <path d="M0,-39.605L0,-10.066L-10.085,0L-37.603,0L-47.67,-10.066L-47.67,-39.605L-37.603,-39.605L-37.603,-10.066L-10.085,-10.066L-10.085,-39.605L0,-39.605Z" style="fill:white;fill-rule:nonzero;"/>
        </g>
        <g transform="matrix(1,0,0,1,402.028,420.108)">
            <path d="M0,19.472L-9.443,29.539L-47.67,29.539L-47.67,-10.067L-37.584,-10.067L-37.584,19.472L0,19.472Z" style="fill:white;fill-rule:nonzero;"/>
        </g>
        <g transform="matrix(1,0,0,1,284.516,434.878)">
            <path d="M0,-10.067L-27.48,-10.067L-27.48,-14.77L0.038,-14.77L0.038,-9.862L0,-10.067ZM0.038,-24.836L-27.48,-24.836L-37.546,-14.77L-37.546,14.769L-27.48,14.769L-27.48,0.17L0.038,0.17L0.038,14.769L10.104,14.769L10.104,-14.77L0.038,-24.836Z" style="fill:white;fill-rule:nonzero;"/>
        </g>
    </g>
</svg>
